<?xml version="1.0" standalone="no"?>
<!DOCTYPE svg PUBLIC "-//W3C//DTD SVG 20010904//EN"
 "http://www.w3.org/TR/2001/REC-SVG-20010904/DTD/svg10.dtd">
<svg version="1.0" xmlns="http://www.w3.org/2000/svg"
 width="1600.000000pt" height="550.000000pt" viewBox="0 0 1600.000000 550.000000"
 preserveAspectRatio="xMidYMid meet">
<metadata>
Created by potrace 1.13, written by Peter Selinger 2001-2015
</metadata>
<g transform="translate(0.000000,550.000000) scale(0.100000,-0.100000)"
fill="#000000" stroke="none">
<path d="M0 2750 l0 -2750 8000 0 8000 0 0 2750 0 2750 -8000 0 -8000 0 0
-2750z m9550 550 c498 -572 907 -1045 908 -1051 2 -5 -690 -9 -1848 -9 -1792
0 -1851 1 -1838 18 7 10 424 492 927 1071 876 1008 915 1052 930 1033 9 -11
423 -489 921 -1062z m-2207 445 l235 -270 -25 -30 c-14 -16 -255 -294 -536
-617 l-510 -588 -490 0 -489 0 29 35 c15 19 366 423 778 899 572 659 753 861
762 852 7 -6 117 -132 246 -281z m1644 -1915 c46 -27 56 -72 52 -226 -3 -103
-8 -136 -21 -157 -38 -56 -158 -56 -196 0 -22 34 -31 264 -13 325 14 46 59 78
111 78 19 0 49 -9 67 -20z m722 6 c44 -23 69 -96 32 -96 -11 0 -25 -2 -33 -5
-7 -3 -17 5 -23 17 -7 15 -19 23 -35 23 -20 0 -26 -6 -28 -28 -3 -24 8 -41 66
-101 76 -78 91 -114 72 -170 -28 -86 -163 -98 -204 -17 -26 49 -21 68 19 73
31 3 35 1 40 -23 12 -52 75 -50 75 2 0 24 -14 44 -68 97 -81 79 -95 119 -65
180 29 58 92 78 152 48z m720 0 c44 -23 69 -96 32 -96 -11 0 -25 -2 -33 -5 -7
-3 -17 5 -23 17 -7 15 -19 23 -35 23 -20 0 -26 -6 -28 -28 -3 -24 8 -41 66
-101 76 -78 91 -114 72 -170 -28 -86 -163 -98 -204 -17 -26 49 -21 68 19 73
31 3 35 1 40 -23 12 -52 75 -50 75 2 0 24 -14 44 -68 97 -81 79 -95 119 -65
180 29 58 92 78 152 48z m-4788 -113 l44 -118 3 118 3 117 34 0 35 0 0 -216 0
-215 -37 3 -36 3 -44 119 c-23 65 -45 121 -48 124 -3 3 -5 -52 -5 -121 l0
-127 -35 0 -35 0 0 215 0 215 39 0 39 0 43 -117z m719 -98 l0 -215 -40 0 -40
0 0 215 0 215 40 0 40 0 0 -215z m611 143 l0 -73 37 73 c36 70 37 72 74 72
l38 0 -39 -77 -38 -77 43 -130 c24 -72 44 -134 44 -138 0 -4 -17 -8 -39 -8
l-38 0 -29 96 c-24 84 -29 94 -41 78 -8 -11 -13 -47 -13 -96 l0 -78 -40 0 -40
0 0 215 0 215 40 0 40 0 1 -72z m849 42 l0 -30 -65 0 -65 0 0 -55 0 -55 50 0
50 0 0 -35 0 -35 -50 0 -50 0 0 -60 0 -60 65 0 65 0 0 -35 0 -35 -105 0 -105
0 0 215 0 215 105 0 105 0 0 -30z"/>
<path d="M8258 3092 c-93 -123 -100 -218 -18 -252 60 -25 118 -7 476 146 189
81 342 149 340 151 -2 2 -147 -35 -322 -82 -175 -47 -338 -85 -362 -85 -75 0
-111 59 -82 136 16 42 7 38 -32 -14z"/>
<path d="M8891 1766 c-8 -9 -11 -57 -9 -146 3 -114 6 -134 21 -144 12 -8 22
-8 35 0 14 10 17 30 20 144 3 137 -3 160 -38 160 -10 0 -23 -6 -29 -14z"/>
</g>
</svg>
