<svg width="500" height="300" xmlns="http://www.w3.org/2000/svg" preserveAspectRatio="xMidYMid meet">
 <metadata>Created by potrace 1.13, written by Peter Selinger 2001-2015</metadata>

 <g>
  <title>background</title>
  <rect x="-1" y="-1" width="502" height="302" id="canvas_background" fill="#ffffff"/>
 </g>
 <g>
  <title>Layer 1</title>
  <g transform="translate(0,550) scale(0.10000000149011612,-0.10000000149011612) " fill="#111111" id="svg_1" stroke="null">
   <path d="m2217.909722,4387.629684c-441.577209,-499.949048 -807.656128,-916.14152 -813.801337,-924.776218c-11.412532,-14.678988 40.382806,-15.542457 1613.556481,-15.542457c1016.593256,0 1624.091126,3.453879 1622.335352,7.771229c-0.877887,5.180819 -359.933709,413.602062 -797.121482,907.506821c-437.187773,494.768229 -800.633031,907.506821 -808.534015,917.00499c-13.168306,16.405927 -47.405903,-21.586746 -816.434999,-891.964364l0,-0.000001zm518.831273,-192.553778c-25.458726,-66.487179 6.14521,-117.431901 71.986742,-117.431901c21.06929,0 164.164887,32.811855 317.795128,73.394938c153.630242,40.583083 280.92387,72.531468 282.679645,70.804528c1.755774,-1.72694 -132.560951,-60.44289 -298.481612,-130.383949c-314.28358,-132.110888 -365.201032,-147.653346 -417.874257,-126.066599c-71.986742,29.357975 -65.841532,111.387612 15.801968,217.594404c34.237597,44.900433 42.138581,48.354312 28.092387,12.088578l-0.000001,0.000001z" id="svg_2" stroke="null"/>
   <path d="m1020.471724,4253.791856c-361.689483,-411.011653 -669.827854,-759.853475 -682.99616,-776.259403l-25.458726,-30.221445l429.28679,0l430.164677,0l447.722419,507.720277c246.686274,278.900764 458.257064,518.945385 470.547483,532.760903l21.947177,25.904096l-206.303467,233.136862c-113.247435,128.657009 -209.815016,237.454211 -215.960225,242.63503c-7.900984,7.771229 -166.798548,-166.649683 -668.949967,-735.676319l-0.000001,-0.000001z" id="svg_3" stroke="null"/>
   <path d="m3230.991429,3093.288366c-40.382806,-23.313686 -49.161677,-62.16983 -45.650129,-195.144188c2.633661,-88.937395 7.023097,-117.431901 18.435629,-135.564768c33.35971,-48.354312 138.706161,-48.354312 172.065871,0c19.313516,29.357975 27.2145,227.956043 11.412532,280.627704c-12.290419,39.719613 -51.795339,67.350649 -97.445468,67.350649c-16.679855,0 -43.016468,-7.771229 -58.818435,-17.269397zm84.277161,-55.262071c7.023097,-7.771229 9.656758,-49.217782 7.900984,-126.066599c-2.633661,-98.435564 -5.267323,-115.704961 -17.557742,-124.33966c-11.412532,-6.907759 -20.191403,-6.907759 -30.726048,0c-13.168306,8.634699 -15.801968,25.904096 -18.435629,124.33966c-2.633661,118.295371 2.633661,138.155177 33.35971,138.155177c8.778871,0 20.191403,-5.180819 25.458726,-12.088578l-0.000001,0z" id="svg_4" stroke="null"/>
   <path d="m3886.77309,3099.332655c-32.481823,-15.542457 -55.306887,-66.487179 -47.405903,-107.070262c4.389435,-25.040626 20.191403,-45.763902 66.719419,-90.664335c47.405903,-45.763902 59.696322,-63.0333 59.696322,-83.756576c0,-44.900433 -55.306887,-46.627372 -65.841532,-1.72694c-4.389435,20.723277 -7.900984,22.450216 -35.115484,19.859807c-35.115484,-4.317349 -39.504919,-20.723277 -16.679855,-63.0333c35.993371,-69.941059 154.508129,-59.57942 179.088967,14.678988c16.679855,48.354312 3.511548,79.439227 -63.207871,146.789876c-50.917452,51.808192 -60.57421,66.487179 -57.940548,87.210456c1.755774,18.996337 7.023097,24.177156 24.580839,24.177156c14.046194,0 24.580839,-6.907759 30.726048,-19.859807c5.267323,-10.361638 14.046194,-17.269397 20.191403,-14.678988c7.023097,2.59041 19.313516,4.317349 28.970274,4.317349c19.313516,0 21.06929,15.542457 6.14521,47.490842c-19.313516,42.310023 -82.521387,59.57942 -129.92729,36.265734l0.000001,0z" id="svg_5" stroke="null"/>
   <path d="m4518.851798,3099.332655c-32.481823,-15.542457 -55.306887,-66.487179 -47.405903,-107.070262c4.389435,-25.040626 20.191403,-45.763902 66.719419,-90.664335c47.405903,-45.763902 59.696322,-63.0333 59.696322,-83.756576c0,-44.900433 -55.306887,-46.627372 -65.841532,-1.72694c-4.389435,20.723277 -7.900984,22.450216 -35.115484,19.859807c-35.115484,-4.317349 -39.504919,-20.723277 -16.679855,-63.0333c35.993371,-69.941059 154.508129,-59.57942 179.088967,14.678988c16.679855,48.354312 3.511548,79.439227 -63.207871,146.789876c-50.917452,51.808192 -60.57421,66.487179 -57.940548,87.210456c1.755774,18.996337 7.023097,24.177156 24.580839,24.177156c14.046194,0 24.580839,-6.907759 30.726048,-19.859807c5.267323,-10.361638 14.046194,-17.269397 20.191403,-14.678988c7.023097,2.59041 19.313516,4.317349 28.970274,4.317349c19.313516,0 21.06929,15.542457 6.14521,47.490842c-19.313516,42.310023 -82.521387,59.57942 -129.92729,36.265734l0.000001,0z" id="svg_6" stroke="null"/>
   <path d="m304.993741,2916.277045l0,-185.64602l30.726048,0l30.726048,0l0,109.660672c0,59.57942 1.755774,107.070262 4.389435,104.479853c2.633661,-2.59041 21.947177,-50.944722 42.138581,-107.070262l38.627032,-102.752913l31.603935,-2.59041l32.481823,-2.59041l0,185.64602l0,186.509489l-30.726048,0l-29.848161,0l-2.633661,-101.025973l-2.633661,-101.889443l-38.627032,101.889443l-37.749145,101.025973l-34.237597,0l-34.237597,0l0,-185.64602l0,0.000001z" id="svg_7" stroke="null"/>
   <path d="m972.187933,2916.277045l0,-185.64602l35.115484,0l35.115484,0l0,185.64602l0,185.64602l-35.115484,0l-35.115484,0l0,-185.64602z" id="svg_8" stroke="null"/>
   <path d="m1507.699062,2916.277045l0,-185.64602l35.115484,0l35.115484,0l0,67.350649c0,42.310023 4.389435,73.394938 11.412532,82.893106c10.534645,13.815518 14.924081,5.180819 35.993371,-67.350649l25.458726,-82.893106l33.35971,0c19.313516,0 34.237597,3.453879 34.237597,6.907759c0,3.453879 -17.557742,56.989011 -38.627032,119.15884l-37.749145,112.251082l33.35971,66.487179l34.237597,66.487179l-33.35971,0c-32.481823,0 -33.35971,-1.72694 -64.963645,-62.16983l-32.481823,-63.0333l0,63.0333l-0.877887,62.16983l-35.115484,0l-35.115484,0l0,-185.64602l-0.000001,0.000001z" id="svg_9" stroke="null"/>
   <path d="m2139.77777,2916.277045l0,-185.64602l92.178145,0l92.178145,0l0,30.221445l0,30.221445l-57.062661,0l-57.062661,0l0,51.808192l0,51.808192l43.894355,0l43.894355,0l0,30.221445l0,30.221445l-43.894355,0l-43.894355,0l0,47.490842l0,47.490842l57.062661,0l57.062661,0l0,25.904096l0,25.904096l-92.178145,0l-92.178145,0l0,-185.64602z" id="svg_10" stroke="null"/>
  </g>
 </g>
</svg>