<?xml version="1.0" encoding="utf-8"?>
<!-- Generator: Adobe Illustrator 19.2.1, SVG Export Plug-In . SVG Version: 6.00 Build 0)  -->
<svg version="1.1" id="Layer_1" xmlns="http://www.w3.org/2000/svg" xmlns:xlink="http://www.w3.org/1999/xlink" x="0px" y="0px"
	 viewBox="0 0 163.9 163.9" style="enable-background:new 0 0 163.9 163.9;" xml:space="preserve">
<path d="M115.9,0H48L0,48v67.9l48,48h67.9l48-48V48L115.9,0z M138.8,77.2c4.4-4.2,8.8-8.5,13.1-12.7v34.2c-4.3-4.2-8.7-8.4-13-12.6
	C141.3,83.2,141.7,80.3,138.8,77.2z M151.9,60.5c-5.1,4.9-10.1,9.8-15.3,14.8c-8.4-8.1-16.6-16-24.9-24c2.3-2.9,2.9-5.9-0.1-9
	c5-4.9,10-9.7,15-14.5L151.9,53V60.5z M30,77.2c8.3-8,16.5-15.9,25-24.1c8.3,8.1,16.6,16,24.9,24.1c-2.2,3-3,5.9,0.2,8.9
	c-8.4,8.1-16.6,16.1-25.1,24.2c-8.4-8.1-16.6-16-24.9-24.1C32.5,83.2,32.8,80.2,30,77.2z M107.2,51.1c-8.3,8-16.6,16-25,24.1
	c-8.5-8.2-16.6-16-25-24c2.5-2.9,2.9-6-0.1-9c8.4-8.1,16.6-16,25-24.2c8.4,8.1,16.6,16,25,24.1C104.7,45,104.3,48,107.2,51.1z
	 M57.2,112.2c8.4-8.1,16.6-16,25-24.1c8.4,8.1,16.6,16,25,24c-2.3,2.9-3,5.8,0.1,8.9c-8.4,8.1-16.6,16-25.1,24.3
	c-8.3-8-16.6-16-25-24.2C60,118,59.8,115.1,57.2,112.2z M84.4,86.1c2.7-3,2.7-5.9,0-9c8.3-8,16.5-15.9,25-24.1
	c8.5,8.2,16.6,16.1,24.9,24.1c-2.7,3-2.7,6,0,9c-8.3,8-16.5,15.9-25,24.1C101,102.1,92.7,94.2,84.4,86.1z M124.5,25.6
	c-5,4.8-10,9.7-15.2,14.6c-8.4-8.1-16.6-16.1-25-24.2c1.2-1.4,1.9-2.7,2-4.1h24.6L124.5,25.6z M53,12h25c0.1,1.3,0.7,2.6,2.1,4
	C71.8,24,63.5,32,55,40.3c-5.2-5-10.3-9.9-15.4-14.8L53,12z M37.5,27.5c5.1,4.9,10.1,9.8,15.2,14.7c-2.6,3-2.8,5.9,0,9
	c-8.3,8-16.5,15.9-25,24.1C22.4,70.2,17.2,65.2,12,60.1V53L37.5,27.5z M25.5,86c-4.5,4.4-9,8.7-13.6,13.1v-35c4.5,4.3,9,8.7,13.5,13
	C23,80.1,22.6,83,25.5,86z M12,103.2c5.2-5.1,10.5-10.1,15.7-15.2c8.4,8.1,16.6,16,24.9,24.1c-2.4,2.9-3,5.8,0.1,8.9
	c-5.2,5.1-10.4,10.1-15.6,15.1l-25.2-25.2v-7.7H12z M39.3,138.2c5.2-5,10.4-10.1,15.7-15.2c8.4,8.1,16.6,16,24.7,23.8
	c-0.7,1.7-1.7,3.2-1.7,4.8c0,0.1,0,0.2,0,0.3H53L39.3,138.2z M110.9,151.9H86.4c0.1-1.6-0.5-3.2-2-4.8c8.4-8.1,16.6-16,25-24.1
	c5.2,5,10.3,10,15.5,14.9L110.9,151.9z M127,135.9c-5.1-4.9-10.1-9.8-15.2-14.7c2.3-3,3-5.9-0.2-8.9c8.4-8.1,16.6-16,25.1-24.2
	c5.1,4.9,10.2,9.8,15.3,14.7v8.1L127,135.9z"/>
</svg>
