<?xml version="1.0" encoding="utf-8"?>
<!-- Generator: Adobe Illustrator 19.2.1, SVG Export Plug-In . SVG Version: 6.00 Build 0)  -->
<svg version="1.1" id="Layer_1" xmlns="http://www.w3.org/2000/svg" xmlns:xlink="http://www.w3.org/1999/xlink" x="0px" y="0px"
	 viewBox="0 0 165.2 165.2" style="enable-background:new 0 0 165.2 165.2;" xml:space="preserve">
<g>
	<path d="M82.6,0C37,0,0,37,0,82.6c0,45.5,37,82.6,82.6,82.6c45.5,0,82.6-37,82.6-82.6C165.1,37,128.1,0,82.6,0z M87.6,151.2v-10.9
		l10.7-6.8v-10l-15.7,10l-15.7-10v10l10.7,6.8v10.9c-35.6-2.6-63.8-32.3-63.8-68.6c0-36,27.8-65.6,63-68.5v10.7l-10.7,6.8v10
		l15.7-10l15.7,10v-10l-10.7-6.8V13.9c36,2.2,64.6,32.1,64.6,68.7C151.4,118.8,123.2,148.6,87.6,151.2z"/>
	<path d="M86.8,52.4l10.7,6.8v-10l-15.7-10l-15.7,10v10l10.7-6.8v13.3H65.1v33.8h12.5v13l-10.7-6.8v10l15.7,10l15.7-10v-10
		l-10.7,6.8v-13h11.3V65.7H86.8V52.4z M88.9,89.5H75.1V75.7h13.8V89.5z"/>
</g>
</svg>
