<svg width="1600" height="550" xmlns="http://www.w3.org/2000/svg" preserveAspectRatio="xMidYMid meet">
 <metadata>Created by potrace 1.13, written by Peter Selinger 2001-2015</metadata>

 <g>
  <title>background</title>
  <rect x="-1" y="-1" width="1602" height="552" id="canvas_background" fill="#000111"/>
 </g>
 <g>
  <title>Layer 1</title>
  <g transform="translate(0,550) scale(0.10000000149011612,-0.10000000149011612) " fill="#FFFFFF" id="svg_1">
   <path d="m7699,3329c-503,-579 -920,-1061 -927,-1071c-13,-17 46,-18 1838,-18c1158,0 1850,4 1848,9c-1,6 -410,479 -908,1051c-498,573 -912,1051 -921,1062c-15,19 -54,-25 -930,-1033zm591,-223c-29,-77 7,-136 82,-136c24,0 187,38 362,85c175,47 320,84 322,82c2,-2 -151,-70 -340,-151c-358,-153 -416,-171 -476,-146c-82,34 -75,129 18,252c39,52 48,56 32,14z" id="svg_2"/>
   <path d="m6335,3174c-412,-476 -763,-880 -778,-899l-29,-35l489,0l490,0l510,588c281,323 522,601 536,617l25,30l-235,270c-129,149 -239,275 -246,281c-9,9 -190,-193 -762,-852z" id="svg_3"/>
   <path d="m8853,1830c-46,-27 -56,-72 -52,-226c3,-103 8,-136 21,-157c38,-56 158,-56 196,0c22,34 31,264 13,325c-14,46 -59,78 -111,78c-19,0 -49,-9 -67,-20zm96,-64c8,-9 11,-57 9,-146c-3,-114 -6,-134 -20,-144c-13,-8 -23,-8 -35,0c-15,10 -18,30 -21,144c-3,137 3,160 38,160c10,0 23,-6 29,-14z" id="svg_4"/>
   <path d="m9600,1837c-37,-18 -63,-77 -54,-124c5,-29 23,-53 76,-105c54,-53 68,-73 68,-97c0,-52 -63,-54 -75,-2c-5,24 -9,26 -40,23c-40,-5 -45,-24 -19,-73c41,-81 176,-69 204,17c19,56 4,92 -72,170c-58,60 -69,77 -66,101c2,22 8,28 28,28c16,0 28,-8 35,-23c6,-12 16,-20 23,-17c8,3 22,5 33,5c22,0 24,18 7,55c-22,49 -94,69 -148,42z" id="svg_5"/>
   <path d="m10320,1837c-37,-18 -63,-77 -54,-124c5,-29 23,-53 76,-105c54,-53 68,-73 68,-97c0,-52 -63,-54 -75,-2c-5,24 -9,26 -40,23c-40,-5 -45,-24 -19,-73c41,-81 176,-69 204,17c19,56 4,92 -72,170c-58,60 -69,77 -66,101c2,22 8,28 28,28c16,0 28,-8 35,-23c6,-12 16,-20 23,-17c8,3 22,5 33,5c22,0 24,18 7,55c-22,49 -94,69 -148,42z" id="svg_6"/>
   <path d="m5520,1625l0,-215l35,0l35,0l0,127c0,69 2,124 5,121c3,-3 25,-59 48,-124l44,-119l36,-3l37,-3l0,215l0,216l-35,0l-34,0l-3,-117l-3,-118l-44,118l-43,117l-39,0l-39,0l0,-215z" id="svg_7"/>
   <path d="m6280,1625l0,-215l40,0l40,0l0,215l0,215l-40,0l-40,0l0,-215z" id="svg_8"/>
   <path d="m6890,1625l0,-215l40,0l40,0l0,78c0,49 5,85 13,96c12,16 17,6 41,-78l29,-96l38,0c22,0 39,4 39,8c0,4 -20,66 -44,138l-43,130l38,77l39,77l-38,0c-37,0 -38,-2 -74,-72l-37,-73l0,73l-1,72l-40,0l-40,0l0,-215z" id="svg_9"/>
   <path d="m7610,1625l0,-215l105,0l105,0l0,35l0,35l-65,0l-65,0l0,60l0,60l50,0l50,0l0,35l0,35l-50,0l-50,0l0,55l0,55l65,0l65,0l0,30l0,30l-105,0l-105,0l0,-215z" id="svg_10"/>
  </g>
 </g>
</svg>