<?xml version="1.0" standalone="no"?>
<!DOCTYPE svg PUBLIC "-//W3C//DTD SVG 20010904//EN"
 "http://www.w3.org/TR/2001/REC-SVG-20010904/DTD/svg10.dtd">
<svg version="1.0" xmlns="http://www.w3.org/2000/svg"
 width="1600.000000pt" height="550.000000pt" viewBox="0 0 1600.000000 550.000000"
 preserveAspectRatio="xMidYMid meet">
<metadata>
Created by potrace 1.13, written by Peter Selinger 2001-2015
</metadata>
<g transform="translate(0.000000,550.000000) scale(0.100000,-0.100000)"
fill="#000000" stroke="none">
<path d="M7699 3329 c-503 -579 -920 -1061 -927 -1071 -13 -17 46 -18 1838
-18 1158 0 1850 4 1848 9 -1 6 -410 479 -908 1051 -498 573 -912 1051 -921
1062 -15 19 -54 -25 -930 -1033z m591 -223 c-29 -77 7 -136 82 -136 24 0 187
38 362 85 175 47 320 84 322 82 2 -2 -151 -70 -340 -151 -358 -153 -416 -171
-476 -146 -82 34 -75 129 18 252 39 52 48 56 32 14z"/>
<path d="M6335 3174 c-412 -476 -763 -880 -778 -899 l-29 -35 489 0 490 0 510
588 c281 323 522 601 536 617 l25 30 -235 270 c-129 149 -239 275 -246 281 -9
9 -190 -193 -762 -852z"/>
<path d="M8853 1830 c-46 -27 -56 -72 -52 -226 3 -103 8 -136 21 -157 38 -56
158 -56 196 0 22 34 31 264 13 325 -14 46 -59 78 -111 78 -19 0 -49 -9 -67
-20z m96 -64 c8 -9 11 -57 9 -146 -3 -114 -6 -134 -20 -144 -13 -8 -23 -8 -35
0 -15 10 -18 30 -21 144 -3 137 3 160 38 160 10 0 23 -6 29 -14z"/>
<path d="M9600 1837 c-37 -18 -63 -77 -54 -124 5 -29 23 -53 76 -105 54 -53
68 -73 68 -97 0 -52 -63 -54 -75 -2 -5 24 -9 26 -40 23 -40 -5 -45 -24 -19
-73 41 -81 176 -69 204 17 19 56 4 92 -72 170 -58 60 -69 77 -66 101 2 22 8
28 28 28 16 0 28 -8 35 -23 6 -12 16 -20 23 -17 8 3 22 5 33 5 22 0 24 18 7
55 -22 49 -94 69 -148 42z"/>
<path d="M10320 1837 c-37 -18 -63 -77 -54 -124 5 -29 23 -53 76 -105 54 -53
68 -73 68 -97 0 -52 -63 -54 -75 -2 -5 24 -9 26 -40 23 -40 -5 -45 -24 -19
-73 41 -81 176 -69 204 17 19 56 4 92 -72 170 -58 60 -69 77 -66 101 2 22 8
28 28 28 16 0 28 -8 35 -23 6 -12 16 -20 23 -17 8 3 22 5 33 5 22 0 24 18 7
55 -22 49 -94 69 -148 42z"/>
<path d="M5520 1625 l0 -215 35 0 35 0 0 127 c0 69 2 124 5 121 3 -3 25 -59
48 -124 l44 -119 36 -3 37 -3 0 215 0 216 -35 0 -34 0 -3 -117 -3 -118 -44
118 -43 117 -39 0 -39 0 0 -215z"/>
<path d="M6280 1625 l0 -215 40 0 40 0 0 215 0 215 -40 0 -40 0 0 -215z"/>
<path d="M6890 1625 l0 -215 40 0 40 0 0 78 c0 49 5 85 13 96 12 16 17 6 41
-78 l29 -96 38 0 c22 0 39 4 39 8 0 4 -20 66 -44 138 l-43 130 38 77 39 77
-38 0 c-37 0 -38 -2 -74 -72 l-37 -73 0 73 -1 72 -40 0 -40 0 0 -215z"/>
<path d="M7610 1625 l0 -215 105 0 105 0 0 35 0 35 -65 0 -65 0 0 60 0 60 50
0 50 0 0 35 0 35 -50 0 -50 0 0 55 0 55 65 0 65 0 0 30 0 30 -105 0 -105 0 0
-215z"/>
</g>
</svg>
