<svg id="Layer_3" data-name="Layer 3" xmlns="http://www.w3.org/2000/svg" viewBox="0 0 3250 3250"><defs><style>.cls-1,.cls-2,.cls-3,.cls-4{stroke:#000;}.cls-1{stroke-miterlimit:10;stroke-width:250px;}.cls-2{fill:#fff;stroke-width:51px;}.cls-2,.cls-3,.cls-4{stroke-linecap:round;stroke-linejoin:round;}.cls-3,.cls-4{stroke-width:19px;}.cls-4{fill:#231f20;}</style></defs><title>Cerberus-Github</title><circle class="cls-1" cx="1625" cy="1625" r="1500"/><path class="cls-2" d="M7483.68,6983.05c9.87-.06,19.62-2.5,29.23-4.93l149.26-37.67c4-1,8.36-2.2,11.13-5.43,2-2.32,2.89-5.39,3.75-8.36,49.06-170.27,96-342.13,150.28-510.7,5.47-18.58,11-37.3,20-54.32,12.06-22.76,29.87-41.56,47.44-60l213.88-225-112.41-151.12c-5.4-7.26-10.91-14.72-13.64-23.45-8.41-26.82,11.12-53.24,22.68-78.77,20.17-44.54,16.62-96.22,12.65-145.26l-26.25-323.9-268.15,259.55c-6.24,6-12.66,12.2-20.55,15.57-11.47,4.89-24.42,3.24-36.7,1.52-58.77-8.26-119.67-19.75-180-21-62.05-1.24-123.92,12.34-185.23,21-12.28,1.73-25.24,3.37-36.7-1.52-7.89-3.36-14.31-9.53-20.55-15.57l-268.15-259.55L6949.4,5678c-4,49-7.53,100.73,12.65,145.26,11.56,25.52,31.09,51.94,22.68,78.77-2.74,8.73-8.24,16.18-13.64,23.45l-112.41,151.12,213.88,225c17.58,18.49,35.38,37.29,47.44,60,9,17,14.56,35.75,20,54.32,20.86,86.45,50.59,171.63,75.71,256.87,25,84.66,50.4,169.19,74.62,254.08,1,3.39,2,7,4.57,9.34,2.3,2.16,5.45,3,8.46,3.75l153.19,38.62c8.31,2.09,16.69,4.2,25.24,4.42Z" transform="translate(-5118.59 -4233)"/><polygon class="cls-3" points="2291.38 1902.82 1956.03 1759.85 2100.32 1976.61 2291.38 1902.82"/><polygon class="cls-3" points="2438.79 1902.82 2774.15 1759.85 2629.86 1976.61 2438.79 1902.82"/><polygon class="cls-4" points="2496.91 2627.51 2365.41 2571.71 2233.91 2627.51 2233.91 2640.34 2365.41 2584.27 2496.91 2640.34 2496.91 2627.51"/><path class="cls-2" d="M6003.68,6983.05c9.87-.06,19.62-2.5,29.23-4.93l149.26-37.67c4-1,8.36-2.2,11.13-5.43,2-2.32,2.89-5.39,3.75-8.36,49.06-170.27,96-342.13,150.28-510.7,5.47-18.58,11-37.3,20-54.32,12.06-22.76,29.87-41.56,47.44-60l213.88-225-112.41-151.12c-5.4-7.26-10.91-14.72-13.64-23.45-8.41-26.82,11.12-53.24,22.68-78.77,20.17-44.54,16.62-96.22,12.65-145.26l-26.25-323.9-268.15,259.55c-6.24,6-12.66,12.2-20.55,15.57-11.47,4.89-24.42,3.24-36.7,1.52-58.77-8.26-119.67-19.75-180-21-62.05-1.24-123.92,12.34-185.23,21-12.28,1.73-25.24,3.37-36.7-1.52-7.89-3.36-14.31-9.53-20.55-15.57l-268.15-259.55L5469.4,5678c-4,49-7.53,100.73,12.65,145.26,11.56,25.52,31.09,51.94,22.68,78.77-2.74,8.73-8.24,16.18-13.64,23.45l-112.41,151.12,213.88,225c17.58,18.49,35.38,37.29,47.44,60,9,17,14.56,35.75,20,54.32,20.86,86.45,50.59,171.63,75.71,256.87,25,84.66,50.4,169.19,74.62,254.08,1,3.39,2,7,4.57,9.34,2.3,2.16,5.45,3,8.46,3.75l153.19,38.62c8.31,2.09,16.69,4.2,25.24,4.42Z" transform="translate(-5118.59 -4233)"/><polygon class="cls-3" points="811.38 1902.82 476.03 1759.85 620.32 1976.61 811.38 1902.82"/><polygon class="cls-3" points="958.79 1902.82 1294.15 1759.85 1149.86 1976.61 958.79 1902.82"/><polygon class="cls-4" points="1016.91 2627.51 885.41 2571.71 753.91 2627.51 753.91 2640.34 885.41 2584.27 1016.91 2640.34 1016.91 2627.51"/><path class="cls-2" d="M6740.94,7000.57c13.85-.08,27.52-3.51,41-6.91l209.42-52.86c5.68-1.43,11.73-3.09,15.61-7.62,2.78-3.25,4.06-7.56,5.26-11.73,68.83-238.89,134.76-480,210.85-716.52,7.68-26.06,15.45-52.34,28.11-76.21,16.93-31.93,41.91-58.31,66.56-84.24l300.07-315.65-157.72-212c-7.58-10.19-15.3-20.65-19.14-32.89-11.79-37.63,15.6-74.7,31.82-110.51,28.3-62.49,23.32-135,17.75-203.81l-36.83-454.44L7077.48,5079.3c-8.75,8.47-17.76,17.12-28.83,21.84-16.09,6.86-34.26,4.55-51.49,2.13-82.46-11.59-167.9-27.71-252.54-29.4-87.06-1.74-173.86,17.31-259.88,29.4-17.23,2.42-35.41,4.73-51.49-2.13-11.07-4.72-20.08-13.37-28.83-21.84l-376.23-364.16-36.83,454.44c-5.58,68.81-10.56,141.32,17.75,203.81,16.22,35.81,43.61,72.88,31.82,110.51-3.84,12.24-11.56,22.7-19.14,32.89l-157.72,212,300.07,315.65c24.66,25.94,49.64,52.32,66.56,84.24,12.66,23.88,20.42,50.15,28.11,76.21,29.27,121.28,71,240.8,106.22,360.39,35,118.79,70.72,237.38,104.69,356.48,1.36,4.76,2.86,9.77,6.42,13.1,3.22,3,7.64,4.19,11.87,5.26l214.92,54.18c11.65,2.94,23.42,5.89,35.41,6.2Q6739.63,7000.57,6740.94,7000.57Z" transform="translate(-5118.59 -4233)"/><polygon class="cls-3" points="1518.94 1578.89 1048.43 1378.3 1250.88 1682.41 1518.94 1578.89"/><polygon class="cls-3" points="1725.76 1578.89 2196.27 1378.3 1993.82 1682.41 1725.76 1578.89"/><polygon class="cls-4" points="1806.91 2595.63 1622.41 2517.35 1437.91 2595.63 1437.91 2613.63 1622.41 2534.97 1806.91 2613.63 1806.91 2595.63"/></svg>