<?xml version="1.0" encoding="utf-8"?>
<!-- Generator: Adobe Illustrator 19.2.1, SVG Export Plug-In . SVG Version: 6.00 Build 0)  -->
<svg version="1.1" id="Layer_1" xmlns="http://www.w3.org/2000/svg" xmlns:xlink="http://www.w3.org/1999/xlink" x="0px" y="0px"
	 viewBox="0 0 164 165.7" style="enable-background:new 0 0 164 165.7;" xml:space="preserve">
<path d="M0,0v132.2l82,33.5l82-33.5V0H0z M82,150.6l-59.3-24.2l18.1-15.3c0.5-0.4,0.5-1.1,0.1-1.5l-4.6-5.5
	c-0.4-0.5-1.1-0.5-1.5-0.1L14,121.5v-20.9c0.6-0.7,1.3-1.4,2-2c2.4-2,5.1-3.2,8.1-3.7c0.6-0.1,1.4-0.2,2.2-0.2
	c0.8,0,1.2-0.9,0.7-1.5l-2.5-3c-0.2-0.2-0.5-0.4-0.9-0.3c-3.4,0.5-6.7,1.8-9.6,3.9V14h88.1L37.9,68.5c-0.4,0.4-0.5,1-0.1,1.4
	c0.2,0.2,0.5,0.4,0.8,0.4c0.2,0,0.5-0.1,0.6-0.2l65.9-56h9.4L58,62c-0.4,0.4-0.5,1-0.1,1.4c0.2,0.2,0.5,0.4,0.8,0.4
	c0.2,0,0.5-0.1,0.6-0.2L117.7,14h9.4L76.8,56.6c-0.4,0.4-0.5,1-0.1,1.4c0.2,0.2,0.5,0.4,0.8,0.4c0.2,0,0.5-0.1,0.6-0.2l52-44.2h15.4
	c-1.1,0.9-2.2,1.9-3.4,2.8c-7.4,6.2-15.4,12.7-23.3,19.3c-4,3.3-7.9,6.6-11.8,9.8c-3.9,3.3-7.7,6.5-11.4,9.6
	c-7.4,6.2-14.3,12-20.2,17s-10.8,9.1-14.3,12c-1.7,1.5-3.1,2.6-4,3.4c-0.2,0.2-0.4,0.4-0.6,0.5l-0.1,0.1c-8.3-7.6-21.2-8-30-0.5
	l29.4,34.8c8.8-7.5,10.5-20.3,4.4-29.7c0.1,0,0.1,0,0.2-0.1c0.2-0.1,0.4-0.3,0.6-0.5c0.9-0.8,2.3-1.9,4-3.4
	c3.4-2.9,8.3-7.1,14.2-12.1c5.9-5,12.7-10.9,20.1-17.1c3.7-3.1,7.5-6.4,11.3-9.7s7.7-6.7,11.6-10c7.8-6.7,15.6-13.5,22.9-19.8
	c1.7-1.5,3.3-2.9,4.9-4.3v13.8L96.3,75.5c-0.4,0.4-0.5,1-0.1,1.4c0.2,0.2,0.5,0.4,0.8,0.4c0.2,0,0.5-0.1,0.6-0.2L150,32.5v8
	L86.6,94.3c-0.4,0.4-0.5,1-0.1,1.4c0.2,0.2,0.5,0.4,0.8,0.4c0.2,0,0.5-0.1,0.6-0.2L150,43.1v8L78.3,112c-0.4,0.4-0.5,1-0.1,1.4
	c0.2,0.2,0.5,0.4,0.8,0.4c0.2,0,0.5-0.1,0.6-0.2L150,53.7v69.1L82,150.6z"/>
</svg>
